<?xml version="1.0" encoding="utf-8"?>
<!-- Generator: Adobe Illustrator 24.1.0, SVG Export Plug-In . SVG Version: 6.00 Build 0)  -->
<svg version="1.1" xmlns="http://www.w3.org/2000/svg" xmlns:xlink="http://www.w3.org/1999/xlink" x="0px" y="0px"
	 viewBox="0 0 1366 768" style="enable-background:new 0 0 1366 768;" xml:space="preserve">
<style type="text/css">
	.st0{fill:#FFFFFF;}
	.st1{fill:#F0313D;}
	.st2{fill:#EA3338;}
	.st3{fill:#EE3337;}
	.st4{fill:none;}
	.st5{fill:none;stroke:#FFFFFF;stroke-miterlimit:10;}
</style>
<g id="Capa_1">
	<path d="M328.63,533.53c10.95-8.27,23.39-13.44,36-18.14c12.51-4.67,25.2-8.87,37.96-13.34c-1.02-5.36-2.17-10.87-3.1-16.41
		c-6.1-36.41-4.9-72.57,3.65-108.49c5.81-24.43,14.97-47.54,27.3-69.4c1.55-2.76,1.15-4.8-1.98-5.61c-5.55-1.43-7.53-5.4-8.38-10.3
		c-1.45-8.43-2.77-16.88-3.94-25.35c-0.25-1.79,0.36-3.69,1.08-5.54c3.17,4.64,3.79,9.9,4.85,14.99c1.05,5.03,1.9,10.11,2.83,15.17
		c0.28,0.01,0.55,0.02,0.83,0.04c0.09-1.08,0.42-2.21,0.24-3.25c-1.32-7.62-2.77-15.23-4.1-22.85c-0.28-1.58-0.23-3.22-0.33-4.77
		c2-0.83,2.86-0.39,3.32,1.55c2.23,9.39,4.59,18.75,6.91,28.11c0.1,0.39,0.32,0.76,0.49,1.14c0.24-0.02,0.48-0.04,0.71-0.06
		c-0.07-1.12-0.02-2.26-0.22-3.36c-1.4-7.7-2.9-15.39-4.24-23.1c-0.35-2.01-0.25-4.09-0.37-6.36c2.65,0.16,3.19,1.99,3.67,3.49
		c0.94,2.94,1.61,5.97,2.3,8.98c1.31,5.68,2.56,11.37,3.86,17.05c0.14,0.6,0.42,1.16,0.64,1.73c0.27-0.03,0.53-0.06,0.8-0.1
		c-0.13-1.41-0.13-2.84-0.43-4.22c-1.49-7.04-3.11-14.04-4.55-21.09c-0.44-2.17-0.45-4.43-0.66-6.67c2.76-0.43,3.13,1.28,3.53,2.87
		c1.86,7.42,3.69,14.84,5.54,22.26c0.25,1.01,0.58,2.01,1,3.48c3.24-4.25,6.11-8.08,9.06-11.86c20.55-26.37,45.2-48.11,73.8-65.41
		c19.36-11.71,39.91-20.68,61.52-27.26c1.93-0.59,2.89-1.57,3.32-3.44c0.46-2.04,1.9-4.26,1.41-5.98c-0.41-1.45-2.97-2.28-4.55-3.44
		c-4.57-3.35-8.3-7.28-7.98-13.46c0.48-9.26,8.56-15.01,17.78-12.38c3.89,1.11,7.52,3.15,11.3,4.67c0.89,0.36,2.2,0.78,2.88,0.4
		c9.3-5.25,19.41-8.3,29.64-10.95c5.54-1.43,11.19-2.55,16.86-3.28c14.31-1.84,27.83,2.01,41.25,6.26c3.11,0.99,6.19,2.07,9.57,3.2
		c0.9-8.64,1.79-17.04,2.66-25.45c0.94-9.06,1.85-18.12,2.83-27.18c0.78-7.2,3.48-13.75,7.13-19.91c6.22-10.5,12.53-20.94,18.8-31.4
		c0.56-0.93,1.16-1.83,1.81-2.84c6.16,1.88,12.27,3.63,18.29,5.7c0.78,0.27,1.48,2.2,1.39,3.31c-0.46,6.27-1.16,12.52-1.81,18.77
		c-1.36,13.04-2.62,26.1-4.15,39.12c-1.41,11.98-4.31,23.63-8.5,34.95c-0.28,0.77-0.49,1.58-0.85,2.31
		c-1.25,2.51-0.93,4.4,1.03,6.76c4.99,6.01,3.97,13.8-2.19,19.2c-2.24,1.96-4.84,3.51-7.65,5.52c0.74,2.44,1.46,5.24,2.51,7.91
		c0.28,0.71,1.5,1.22,2.39,1.49c28.09,8.61,54.24,21.19,78.24,38.17c21.41,15.15,40.28,32.98,56.5,53.6
		c2.81,3.58,5.51,7.25,8.28,10.86c0.09,0.11,0.32,0.11,0.91,0.31c3.89-26.22,7.76-52.37,11.76-79.32c1.28,1.61,2.28,2.67,3.05,3.88
		c6.33,9.86,8.66,20.78,7.97,32.33c-1.17,19.7-5.06,38.98-9.31,58.2c-0.25,1.13-1.21,2.1-2.1,3.58
		c17.42,29.61,29.11,61.84,34.37,96.37c5.26,34.54,3.85,68.82-3.93,102.97c25.64,8.49,51.46,16.16,74.27,30.96
		c-24.87-9.54-50.72-15.42-76.42-21.33c-2.77,8.16-5.25,16.06-8.12,23.82c-7.77,21.04-18.26,40.68-31.07,59.08
		c-16,22.98-35.11,42.99-57.31,60.05c-20.57,15.8-42.95,28.39-67.16,37.75c-20.15,7.79-40.92,13.06-62.32,15.85
		c-21.15,2.75-42.35,2.96-63.55,0.77c-31.1-3.2-60.74-11.66-88.89-25.26c-33.07-15.98-61.72-37.84-85.95-65.45
		c-22.72-25.9-39.87-55.12-51.45-87.57c-2.02-5.65-3.67-11.44-5.41-17.19c-0.37-1.23-0.67-1.91-2.2-1.56
		c-21.92,5.04-43.81,10.17-65.08,17.6C335.19,530.92,331.92,532.27,328.63,533.53z M921.5,510.96c-1.27-0.42-1.69-0.59-2.12-0.69
		c-32.52-7.02-65.25-12.68-98.48-15.01c-6.03-0.42-12.01-1.49-18.1,1.64c-8.16,4.21-17.41,5.03-26.48,6.05
		c-21.97,2.47-42.44-1.4-60.8-14.32c-0.68-0.48-1.95-0.81-2.64-0.5c-13.92,6.17-28.64,8.21-43.68,8.47
		c-17.17,0.3-34.02-1.44-50-8.36c-0.77-0.33-2.17-0.07-2.89,0.45c-10.05,7.16-21.22,11.69-33.3,13.73
		c-5.62,0.95-11.43,2.59-17.13-0.08c-0.38-0.18-0.98-0.23-1.33-0.06c-3.8,1.85-7.71,0.79-11.54,0.33
		c-9.69-1.17-19.3-2.75-28.08-7.45c-0.82-0.44-1.92-0.58-2.87-0.52c-8.27,0.52-16.56,0.89-24.8,1.73
		c-28.11,2.88-55.91,7.68-83.54,13.56c-2.17,0.46-2.83,1.12-2.13,3.42c4.27,14.14,9.41,27.94,15.8,41.27
		c12.43,25.93,28.68,49.19,48.68,69.82c18.51,19.1,39.42,35.07,62.74,47.89c27.17,14.93,56.08,24.74,86.69,29.44
		c20.7,3.18,41.51,3.94,62.4,2.19c17.85-1.5,35.38-4.68,52.55-9.73c28.1-8.27,54.15-20.84,78.07-37.79
		c22-15.59,41.21-34.09,57.6-55.51c13.57-17.74,24.87-36.83,33.39-57.47C913.87,532.91,917.45,522.02,921.5,510.96z M532.88,406.83
		c0.31-0.07,0.63-0.14,0.94-0.21c15.51-3.3,31.06-3.78,46.69-0.83c11.16,2.1,21.36,6.66,31.13,12.22
		c13.77,7.83,27.42,15.86,41.16,23.73c1.09,0.63,2.51,1,3.76,0.97c8.71-0.2,17.35-0.08,25.4,3.89c3.99,1.97,7.39,4.87,8.16,9.34
		c0.78,4.52,0.96,9.23,0.7,13.82c-0.31,5.53-2.97,10.37-6.14,15.07c4.25-0.58,8-3.54,9.9-7.58c1.81-3.86,1.84-7.94,1.5-12.06
		c-1.15-13.85-9.55-23.03-23.28-24.86c-6.12-0.82-12.35-0.83-18.53-1.22c-0.75-0.05-1.49-0.13-2.24-0.2
		c-0.06-0.33-0.12-0.65-0.18-0.98c2.1-0.63,4.19-1.7,6.31-1.8c4.08-0.19,8.2-0.06,12.26,0.35c5.12,0.51,9.98,0.1,14.63-2.25
		c7.07-3.57,14.31-6.83,21.24-10.66c21.85-12.1,45.17-16.99,70-14.86c1.27,0.11,2.53,0.3,3.8,0.46c1.16,0.15,2.31,0.3,3.47,0.45
		c-21.53-5.58-42.81-6.19-63.74,3.44c3.56-4.02,7.92-6.62,12.48-8.9c9.12-4.56,18.93-7.03,28.86-8.97
		c15.53-3.04,31.13-3.88,46.65-0.13c5.32,1.29,10.42,3.5,15.54,5.26c0.01,0.04,0.04-0.17-0.06-0.27c-0.44-0.46-0.91-0.9-1.38-1.32
		c-4.84-4.35-10.64-6.41-16.98-7.5c-5.57-0.96-5.57-1.6-6.62-6.99c-1.27-6.51-2.82-12.99-4.77-19.32
		c-2.42-7.87-7.71-13.95-13.54-19.55c-1.23-1.18-1.48-2.32-1.17-4.08c0.58-3.29,0.89-6.69,0.8-10.02c-0.13-4.3-2.02-7.99-5.33-11.57
		c0.82,3.82,1.82,7.05,2.12,10.33c0.3,3.31-0.11,6.69-0.23,10.48c-31.82-27.4-68.98-37.7-109.03-38.21
		c-40.44-0.51-76.92,12.42-109.23,37c-0.28-0.16-0.56-0.33-0.84-0.49c0.82-7.3,1.63-14.6,2.46-22.04
		c-3.83,7.36-6.19,14.96-6.03,23.28c0.03,1.41-0.44,3.04-1.21,4.22c-8.41,12.82-15.59,26.12-17.42,41.7
		c-0.08,0.7-1.25,1.67-2.05,1.84c-7.95,1.68-14.83,5.45-21.06,10.52c-0.42,0.34-0.75,0.79-1.66,1.77c1.47-0.62,2.14-0.89,2.79-1.19
		c9.38-4.41,19.26-6.63,29.62-6.65c9.77-0.02,19.17,2.13,28.4,5.07c6.43,2.05,12.74,4.51,19.1,6.79c-0.06,0.35-0.12,0.69-0.17,1.04
		C570.55,398.01,551.57,398.61,532.88,406.83z M621.45,165.93c-4.89,0.8-9.78,1.53-14.66,2.41c-9.68,1.74-9.83,1.75-11.68,11.35
		c-1.46,7.53-4.87,14-9.37,20.1c-3.88,5.27-7.82,10.55-11.04,16.22c-5.44,9.59-6.88,19.86-2.14,30.15
		c6.79,14.73,17.77,25.64,32.18,32.99c3.04,1.55,6.61,2.07,10.39,3.2c-0.45-2.91-0.77-4.97-1.13-7.31c0.55,0.34,0.75,0.39,0.83,0.52
		c5.69,9.42,14.44,14.82,24.58,17.99c14.8,4.61,29.94,5.05,45.15,2.38c9.73-1.71,18.9-4.97,26.24-11.9c2.72-2.56,4.9-5.69,7.37-8.62
		c0.1,1.85,0.2,3.76,0.33,6.07c15.09-5.85,28.5-13.29,37.66-26.6c6.47-9.42,8.75-19.95,6.54-31.22
		c-1.83-9.35-7.29-16.62-14.36-22.64c-4.06-3.46-6.72-7.54-8.01-12.67c-1.29-5.11-2.7-10.21-4.31-15.23
		c-0.32-1.01-1.7-2.13-2.78-2.37c-4.79-1.09-9.65-1.88-14.49-2.76c-1.46-0.26-2.93-0.46-4.4-0.68c-0.18,0.28-0.36,0.57-0.55,0.85
		c0.73,0.5,1.55,0.91,2.17,1.52c8.31,8.21,15.19,17.44,19.69,28.27c3.68,8.84,1.92,12.59-7.05,15.87
		c-16.26,5.95-36.97-2.69-44.7-18.62c-3.54-7.29-5.04-14.88-2.87-22.78c0.79-2.88,2.65-5.47,4.24-8.64c-12.33,0-24.61,0-37.41,0
		c5.81,6.08,7.02,13,5.71,20.4c-2.73,15.45-11.62,25.62-26.77,29.97c-8.78,2.52-17.48,2.35-25.69-2.26c-4.47-2.51-5.75-4.97-4-9.69
		c1.94-5.25,4.21-10.48,7.07-15.28C608.83,179.17,614.47,172.16,621.45,165.93z M587.75,188.48c-0.15-0.18-0.29-0.35-0.44-0.53
		c-0.59,0.11-1.2,0.14-1.76,0.34c-5.65,2.02-11.36,3.92-16.94,6.13c-27.49,10.92-52.46,26.01-74.9,45.3
		c-20.53,17.65-37.87,38.01-52.41,60.83c-2.42,3.8-2.75,7.38-2.01,11.6c2.96,16.92,8.9,33.02,13.46,49.5
		c0.47,1.71,1.33,1.86,2.8,1.41c5.83-1.78,11.72-3.38,17.51-5.28c7.14-2.34,13.32-6.3,16.91-13.04
		c5.38-10.11,10.74-20.28,15.28-30.79c12.64-29.27,31.56-53.48,56.94-72.72c0.75-0.57,1.23-2.11,1.11-3.12
		c-1.17-10.43,0.44-20.3,6.62-28.88c3.71-5.14,8.34-9.6,12.52-14.4C584.26,192.76,585.98,190.6,587.75,188.48z M876.99,362.79
		c0.22-0.82,0.51-1.67,0.68-2.55c3.58-18.68,7.15-37.36,10.68-56.05c0.12-0.65,0-1.52-0.35-2.07c-1.57-2.45-3.11-4.8-2.22-8.01
		c0.2-0.71-0.64-1.84-1.22-2.6c-6.55-8.52-12.72-17.37-19.79-25.43c-32.22-36.72-71.74-62.5-118.16-77.69
		c-0.63-0.21-1.32-0.21-2.63-0.41c1.05,1.44,1.65,2.43,2.42,3.28c3.37,3.71,6.73,7.42,10.18,11.05
		c9.56,10.06,13.78,21.91,11.93,35.73c-0.24,1.76,0.21,2.58,1.5,3.55c18.97,14.34,35,31.45,46.44,52.33
		c7.3,13.31,13.93,27.07,19.71,41.11C843.77,353.54,859.13,359.6,876.99,362.79z M442.5,365.83c-2.34-17.95-4.05-35.34-8.2-52.42
		c-19.38,34.72-30.07,71.91-32.35,111.48c-1.47,25.54,0.5,50.82,6.54,75.99c31.81-8.42,63.71-13.7,95.99-17.1
		c-0.15-0.46-0.16-0.65-0.26-0.78c-0.16-0.21-0.38-0.39-0.58-0.58c-15.61-13.79-22.48-31.38-22.52-51.9
		c-0.01-5.64,1.11-11.05,4.41-15.81c0.15-0.21,0.11-0.55,0.16-0.9c-0.32,0.04-0.43,0.02-0.5,0.06c-0.57,0.28-1.13,0.58-1.7,0.87
		c-16.71,8.54-32.72,7.18-47.82-3.77c-6.98-5.06-10.32-12.09-9.27-20.88c1-8.41,4.93-15.51,9.85-22.19
		C437.68,365.94,439.14,364.31,442.5,365.83z M896.29,310.13c-0.3-0.01-0.6-0.01-0.9-0.02c-0.3,2.29-0.77,4.58-0.89,6.88
		c-0.76,15.28-1.46,30.57-2.14,45.86c-0.03,0.74,0.09,1.75,0.56,2.19c5.61,5.37,9.1,12.03,11.42,19.28
		c3.34,10.43,0.66,19.53-7.33,26.11c-13.29,10.95-32.49,12.86-47.77,4.74c-0.97-0.51-1.94-1.02-3.41-1.79
		c1.27,2.53,2.4,4.32,3.1,6.27c0.73,2.04,1.32,4.21,1.49,6.36c1.64,21.09-4.81,39.28-19.8,54.33c-1.01,1.01-2.11,1.94-3.29,3.02
		c16.26,2.36,32.32,4.3,48.23,7.11c16,2.83,31.84,6.51,48.18,9.91C938.04,433.52,929.38,370.06,896.29,310.13z M708.93,149.17
		c0.11-0.44,0.23-0.88,0.34-1.32c-8.95-4.76-18.73-6.77-28.74-8.13c-21.45-2.91-47.68,2.82-55.64,8.72
		C653.21,143.21,681.08,143.94,708.93,149.17z M716.18,193.95c-1.32-1.85-1.95-3.19-2.98-4.08c-4.67-4.01-14.2-3.58-19,0.57
		c-1.57,1.36-1.85,2.87-0.61,4.17c0.45,0.47,2.54,0.07,3.34-0.59c3.26-2.71,6.72-2.85,10.46-1.41c1.95,0.75,3.88,1.57,5.88,2.13
		C713.9,194.93,714.74,194.37,716.18,193.95z M619.13,195.27c2.54-0.91,4.9-1.67,7.2-2.59c3.96-1.6,7.6-1.44,10.97,1.46
		c0.88,0.76,1.97,2.19,3.18,0.62c1.01-1.31,1.06-2.74-0.38-4.12c-4.44-4.24-14.34-4.79-19.09-0.92
		C619.45,190.99,618.53,192.54,619.13,195.27z"/>
	<path class="st0" d="M921.5,510.96c-4.05,11.06-7.63,21.95-11.99,32.52c-8.51,20.64-19.82,39.73-33.39,57.47
		c-16.39,21.42-35.6,39.92-57.6,55.51c-23.91,16.95-49.96,29.51-78.07,37.79c-17.17,5.06-34.71,8.24-52.55,9.73
		c-20.89,1.75-41.7,0.99-62.4-2.19c-30.62-4.71-59.53-14.51-86.69-29.44c-23.32-12.82-44.23-28.79-62.74-47.89
		c-20-20.64-36.24-43.9-48.68-69.82c-6.39-13.33-11.53-27.13-15.8-41.27c-0.7-2.3-0.04-2.96,2.13-3.42
		c27.63-5.89,55.43-10.68,83.54-13.56c8.24-0.84,16.53-1.21,24.8-1.73c0.95-0.06,2.05,0.08,2.87,0.52
		c8.78,4.7,18.38,6.28,28.08,7.45c3.83,0.46,7.74,1.52,11.54-0.33c0.36-0.17,0.95-0.12,1.33,0.06c5.69,2.67,11.51,1.03,17.13,0.08
		c12.08-2.04,23.26-6.57,33.3-13.73c0.73-0.52,2.12-0.78,2.89-0.45c15.99,6.92,32.83,8.66,50,8.36c15.05-0.26,29.76-2.3,43.68-8.47
		c0.69-0.3,1.96,0.02,2.64,0.5c18.36,12.91,38.83,16.78,60.8,14.32c9.07-1.02,18.31-1.84,26.48-6.05c6.08-3.14,12.07-2.06,18.1-1.64
		c33.23,2.33,65.96,7.99,98.48,15.01C919.81,510.37,920.23,510.55,921.5,510.96z M714.7,625.85l0.08,0.09
		c-0.23-2.4-1.89-3.19-3.94-3.33c-3.88-0.25-7.41,1.06-9.7,4.07c-2.49,3.28-4.56,6.95-6.3,10.69c-1.52,3.28-3.05,5.11-6.08,5.17
		c0.11-0.9,0.15-1.77,0.34-2.61c0.66-2.92,1.44-5.82,2.03-8.75c0.58-2.88,0.49-5.88-2.07-7.72c-2.49-1.8-5.42-1.26-8.07,0.03
		c-5.54,2.69-8.4,7.54-10.41,13.08c-0.46,1.26-0.85,2.71-1.73,3.62c-1.02,1.06-2.56,1.62-3.88,2.39c0.06-1.36,0.01-2.73,0.21-4.06
		c0.54-3.58,1.56-7.12,1.7-10.71c0.13-3.52-2.34-5.52-5.85-5.23c-1.76,0.14-3.62,0.58-5.16,1.41c-7.67,4.11-12.55,15.89-10.22,24.29
		c1.3,4.72,6.25,6.3,10.06,3.18c0.91-0.75,1.76-1.59,2.54-2.48c1.75-1.98,3.11-4.42,6.46-4c0.77,0.09,1.67-0.95,2.52-1.45
		c0.56-0.33,1.13-0.65,1.93-1.1c0.12,1.57,0.13,2.76,0.32,3.91c0.46,2.8,1.36,5.44,4.36,6.41c2.9,0.94,5.37-0.18,7.39-2.31
		c1.12-1.19,2.17-2.45,3.25-3.67c0.48-0.54,0.88-1.35,1.48-1.55c2.44-0.78,4.94-1.37,7.51-2.06c0.52,3.41,0.08,8,4.81,9.63
		c4.76,1.65,7.22-2.6,10.3-5.06c0.34,0.48,0.55,0.68,0.64,0.92c1.92,5.08,5.05,5.99,8.96,2.17c2.71-2.65,4.98-5.76,7.24-8.82
		c1.65-2.23,2.95-4.71,4.41-7.08c-1.24,0.73-1.9,1.82-2.71,2.79c-2.09,2.5-4.16,5.04-6.44,7.37c-0.6,0.62-2.17,0.99-2.85,0.63
		c-0.7-0.37-1.16-1.78-1.15-2.72c0.02-1.32,0.42-2.7,0.94-3.94c5.14-12.21,11.74-23.57,20.59-34.38c-4.24,1.6-7.96,2.86-11.56,0.9
		c-1.63,3.89-3.02,7.52-4.66,11.05c-1.67,3.61-3.56,7.1-5.49,10.9C715.69,626.77,715.2,626.31,714.7,625.85z M706.36,597.8
		c0.91,0.05,1.63,0.11,2.35,0.11c11.21,0,22.42,0.01,33.63-0.01c6.86-0.01,13.32-1.65,19.44-4.79
		c17.49-8.98,26.27-28.59,21.55-48.28c-4.43-18.44-21.85-32.13-40.95-32.16c-11.03-0.02-22.05-0.01-33.08,0
		c-0.96,0-1.93,0.08-2.93,0.13C706.36,541.29,706.36,569.49,706.36,597.8z M697.42,611.34c0-33.28,0-65.84,0-98.51
		c-8.01,0-15.79,0-24.07,0c0,12.66,0,25.15,0,37.64c-0.25,0.09-0.5,0.19-0.76,0.28c-17.11-15.84-34.21-31.67-51.73-47.89
		c0,31.12,0,61.58,0,91.71c7.93-1,15.73-1.97,23.9-3c0-9.24,0-18.83,0-28.42c0.21-0.11,0.43-0.22,0.64-0.33
		C662.6,578.85,679.78,594.89,697.42,611.34z M485.06,597.75c0-3.18,0-6,0-8.82c0-3.78,0.01-3.78,3.86-3.87
		c7.72-0.17,15.33-1.06,22.2-4.86c14.58-8.05,21.31-24.13,17.16-40.56c-3.84-15.19-18.68-26.83-34.55-26.98
		c-9.93-0.09-19.86,0.07-29.79-0.06c-2.48-0.03-3,0.79-3,3.13c0.08,26.33,0.05,52.67,0.05,79c0,0.97,0,1.94,0,3.02
		C469.16,597.75,476.94,597.75,485.06,597.75z M870.83,597.9c-15.77-30.56-31.27-60.62-46.98-91.06
		c-15.09,30.5-29.96,60.57-45.04,91.06c8.71,0,16.8,0.04,24.89-0.08c0.7-0.01,1.64-0.96,2.03-1.71c1.62-3.16,3.14-6.37,4.55-9.62
		c0.58-1.33,1.25-1.97,2.81-1.95c7.84,0.08,15.68-0.02,23.51,0.1c0.9,0.01,2.17,0.85,2.59,1.66c1.68,3.22,3.04,6.61,4.67,9.87
		c0.37,0.74,1.35,1.64,2.06,1.65C854.02,597.95,862.13,597.9,870.83,597.9z M565.09,506.84c-15.06,30.46-29.92,60.51-44.88,90.75
		c0.79,0.17,1.12,0.3,1.46,0.3c7.65,0.01,15.3,0.06,22.95-0.07c0.81-0.01,1.94-0.9,2.35-1.67c1.65-3.14,3.18-6.35,4.53-9.63
		c0.63-1.53,1.52-2,3.07-1.99c7.74,0.05,15.48-0.03,23.22,0.12c0.94,0.02,2.25,0.99,2.73,1.87c1.66,3.13,2.99,6.44,4.55,9.62
		c0.35,0.7,1.15,1.68,1.75,1.68c8.26,0.11,16.51,0.08,25.26,0.08C596.34,567.4,580.81,537.3,565.09,506.84z M673.87,597.15
		c-3.92-0.23-7.46-0.29-10.96-0.67c-10.86-1.19-21.71-2.66-32.64-0.71c-9.52,1.7-18.4,4.67-24.73,12.55
		c-4.28,5.33-6.48,11.39-4.99,18.29c0.38,1.75,1.58,3.32,2.41,4.97c0.32-0.01,0.65-0.02,0.97-0.03c1.39-6.01,5.79-8.29,11.07-9.26
		c2.33-0.43,3.06-1.63,3.4-3.81c0.96-6.14,3.65-11.39,8.54-15.39c6.66-5.47,14.33-5.85,22.67-4.81c-0.38,0.79-0.5,1.23-0.76,1.56
		c-4.93,6.41-9.83,12.85-14.88,19.17c-0.64,0.8-2.05,1.34-3.13,1.38c-3.05,0.13-6.14-0.15-8.86,1.49c0.97,2.05,1.84,3.88,2.71,5.73
		c1.2-0.5,2.41-0.99,3.87-1.6c-0.16,0.67-0.15,0.97-0.28,1.17c-4.72,7.15-9.73,14.06-16.12,19.88c-4.33,3.94-9.3,5.57-15.1,4.49
		c-0.95-0.18-1.9-0.33-3.22-0.56c0.46,3.11,1.8,5.28,3.49,7.5c1.83,2.39,3.33,5.13,4.45,7.93c0.7,1.75,0.43,3.89,0.65,6.45
		c2.09-0.72,3.93-1.13,5.57-1.96c6.54-3.27,10.92-8.83,14.3-14.99c5.24-9.55,9.94-19.4,14.9-29.1c0.43-0.84,1.15-1.53,1.74-2.29
		c0.18,0.11,0.36,0.22,0.53,0.32c-0.95,4.29-1.9,8.58-2.84,12.88c0.32,0.13,0.64,0.26,0.95,0.39c1.88-1.34,4.04-2.43,5.5-4.13
		c0.66-0.76-0.09-2.73-0.19-4.15c-0.29-4.26-0.08-4.41,3.46-5.21c1.28-0.29,2.43-1.29,3.5-2.14c0.17-0.14-0.31-1.71-0.64-1.77
		c-1.33-0.25-2.73-0.19-4.11-0.18c-0.33,0-0.65,0.32-0.99,0.44c-1.27,0.44-2.55,0.86-3.83,1.29c0.3-1.31,0.33-2.76,0.95-3.89
		c3.06-5.56,6.07-11.17,9.54-16.48c2.08-3.18,3.9-3.48,7.32-1.77c2.86,1.44,5.43,3.48,8.36,5.4
		C668.63,603.09,671.06,600.33,673.87,597.15z"/>
	<path class="st0" d="M532.88,406.83c18.68-8.22,37.67-8.82,56.92-1.67c0.06-0.35,0.12-0.69,0.17-1.04
		c-6.36-2.28-12.66-4.74-19.1-6.79c-9.22-2.94-18.63-5.09-28.4-5.07c-10.36,0.02-20.24,2.24-29.62,6.65
		c-0.65,0.3-1.32,0.57-2.79,1.19c0.91-0.98,1.24-1.43,1.66-1.77c6.23-5.08,13.11-8.85,21.06-10.52c0.8-0.17,1.97-1.14,2.05-1.84
		c1.83-15.58,9.01-28.88,17.42-41.7c0.77-1.18,1.24-2.81,1.21-4.22c-0.16-8.32,2.2-15.92,6.03-23.28
		c-0.83,7.44-1.65,14.74-2.46,22.04c0.28,0.16,0.56,0.33,0.84,0.49c32.31-24.58,68.79-37.51,109.23-37
		c40.05,0.51,77.21,10.81,109.03,38.21c0.11-3.79,0.52-7.17,0.23-10.48c-0.29-3.28-1.3-6.51-2.12-10.33
		c3.31,3.58,5.2,7.27,5.33,11.57c0.1,3.34-0.21,6.73-0.8,10.02c-0.31,1.77-0.06,2.9,1.17,4.08c5.84,5.6,11.13,11.68,13.54,19.55
		c1.95,6.33,3.49,12.82,4.77,19.32c1.05,5.4,1.06,6.03,6.62,6.99c6.34,1.09,12.14,3.15,16.98,7.5c0.47,0.43,0.94,0.86,1.38,1.32
		c0.09,0.1,0.06,0.31,0.06,0.27c-5.12-1.76-10.21-3.97-15.54-5.26c-15.52-3.75-31.12-2.91-46.65,0.13
		c-9.93,1.95-19.74,4.41-28.86,8.97c-4.56,2.28-8.92,4.88-12.48,8.9c20.93-9.63,42.2-9.02,63.74-3.44
		c-1.16-0.15-2.31-0.31-3.47-0.45c-1.26-0.16-2.53-0.35-3.8-0.46c-24.84-2.13-48.15,2.76-70,14.86
		c-6.92,3.83-14.17,7.09-21.24,10.66c-4.65,2.35-9.51,2.76-14.63,2.25c-4.06-0.41-8.19-0.54-12.26-0.35
		c-2.13,0.1-4.21,1.17-6.31,1.8c0.06,0.33,0.12,0.65,0.18,0.98c0.75,0.07,1.49,0.15,2.24,0.2c6.18,0.39,12.41,0.4,18.53,1.22
		c13.73,1.83,22.13,11.01,23.28,24.86c0.34,4.12,0.31,8.2-1.5,12.06c-1.89,4.04-5.65,7-9.9,7.58c3.17-4.7,5.84-9.55,6.14-15.07
		c0.25-4.59,0.08-9.3-0.7-13.82c-0.77-4.47-4.16-7.37-8.16-9.34c-8.05-3.96-16.69-4.09-25.4-3.89c-1.25,0.03-2.67-0.35-3.76-0.97
		c-13.74-7.87-27.39-15.9-41.16-23.73c-9.77-5.56-19.97-10.11-31.13-12.22c-15.63-2.95-31.18-2.47-46.69,0.83
		C533.51,406.69,533.2,406.76,532.88,406.83z"/>
	<path class="st0" d="M621.45,165.93c-6.97,6.23-12.61,13.24-17.23,20.97c-2.87,4.8-5.13,10.03-7.07,15.28
		c-1.75,4.73-0.47,7.18,4,9.69c8.21,4.61,16.91,4.78,25.69,2.26c15.15-4.34,24.04-14.51,26.77-29.97c1.31-7.4,0.1-14.31-5.71-20.4
		c12.8,0,25.08,0,37.41,0c-1.59,3.17-3.45,5.76-4.24,8.64c-2.17,7.9-0.67,15.5,2.87,22.78c7.73,15.93,28.44,24.58,44.7,18.62
		c8.97-3.28,10.73-7.03,7.05-15.87c-4.51-10.83-11.39-20.07-19.69-28.27c-0.62-0.61-1.44-1.02-2.17-1.52
		c0.18-0.28,0.36-0.57,0.55-0.85c1.47,0.23,2.94,0.42,4.4,0.68c4.84,0.88,9.69,1.67,14.49,2.76c1.08,0.24,2.45,1.36,2.78,2.37
		c1.61,5.02,3.02,10.11,4.31,15.23c1.3,5.13,3.95,9.21,8.01,12.67c7.08,6.02,12.53,13.29,14.36,22.64
		c2.21,11.28-0.07,21.81-6.54,31.22c-9.15,13.31-22.56,20.76-37.66,26.6c-0.12-2.3-0.23-4.21-0.33-6.07
		c-2.47,2.92-4.65,6.05-7.37,8.62c-7.35,6.93-16.51,10.19-26.24,11.9c-15.21,2.67-30.35,2.23-45.15-2.38
		c-10.15-3.16-18.89-8.57-24.58-17.99c-0.08-0.13-0.28-0.19-0.83-0.52c0.36,2.35,0.68,4.4,1.13,7.31c-3.77-1.13-7.34-1.65-10.39-3.2
		c-14.4-7.34-25.39-18.25-32.18-32.99c-4.75-10.29-3.3-20.56,2.14-30.15c3.22-5.67,7.16-10.96,11.04-16.22
		c4.49-6.1,7.91-12.57,9.37-20.1c1.86-9.6,2-9.61,11.68-11.35C611.66,167.46,616.56,166.73,621.45,165.93z M665.89,230.87
		c-1.11,2.34-1.88,4.3-2.94,6.08c-1.06,1.79-2.28,3.53-3.67,5.07c-3.24,3.6-7.71,4.66-11.88,2.24c-4.47-2.59-8.62-5.74-12.8-8.79
		c-2.06-1.5-3.12-3.46-1.58-6.08c0.47-0.8,0.5-1.85,0.77-2.93c-4.63,1.91-8.1,7.12-7.93,11.81c1.31-1.2,2.55-2.33,3.82-3.49
		c16.18,27.63,50.01,35.07,72.71,0.22c0.84,0.62,1.67,1.24,2.6,1.94c0.59-6.12-2.8-9.67-9.19-9.59c1.17,1.26,2.38,2.27,3.19,3.53
		c0.46,0.71,0.69,2.08,0.31,2.72c-2.5,4.14-5.95,7.32-10.39,9.34c-8.31,3.78-16.09,1.24-20.51-6.73
		C667.54,234.63,666.87,232.95,665.89,230.87z M664.13,223.15c6.68,0,13.98-2.89,17.79-7.06c2.27-2.49,2.15-3.44-0.7-5.28
		c-7.2-4.65-24.49-4.38-31.52,0.49c-2.41,1.66-2.63,3.7-0.35,5.89C653.44,221.15,658.4,223.15,664.13,223.15z M677.96,263.11
		c-7.23,5.18-14.34,3.58-21.83,1.23C664.72,272.47,673.9,272.07,677.96,263.11z"/>
	<path class="st0" d="M587.75,188.48c-1.76,2.12-3.49,4.27-5.3,6.35c-4.18,4.8-8.82,9.26-12.52,14.4
		c-6.19,8.58-7.79,18.45-6.62,28.88c0.11,1.01-0.36,2.55-1.11,3.12c-25.38,19.24-44.3,43.45-56.94,72.72
		c-4.54,10.5-9.89,20.67-15.28,30.79c-3.59,6.74-9.77,10.7-16.91,13.04c-5.79,1.9-11.68,3.5-17.51,5.28
		c-1.47,0.45-2.33,0.3-2.8-1.41c-4.56-16.48-10.5-32.57-13.46-49.5c-0.74-4.22-0.41-7.8,2.01-11.6
		c14.54-22.83,31.88-43.18,52.41-60.83c22.44-19.29,47.41-34.38,74.9-45.3c5.58-2.21,11.28-4.11,16.94-6.13
		c0.56-0.2,1.17-0.23,1.76-0.34C587.46,188.13,587.6,188.31,587.75,188.48z"/>
	<path class="st0" d="M876.99,362.79c-17.86-3.19-33.23-9.25-40.85-27.77c-5.78-14.03-12.41-27.8-19.71-41.11
		c-11.44-20.88-27.47-37.99-46.44-52.33c-1.29-0.97-1.73-1.79-1.5-3.55c1.85-13.81-2.37-25.67-11.93-35.73
		c-3.45-3.63-6.82-7.34-10.18-11.05c-0.77-0.85-1.37-1.84-2.42-3.28c1.31,0.2,2,0.21,2.63,0.41
		c46.42,15.19,85.94,40.96,118.16,77.69c7.07,8.06,13.24,16.91,19.79,25.43c0.59,0.76,1.42,1.9,1.22,2.6
		c-0.89,3.21,0.65,5.56,2.22,8.01c0.35,0.55,0.48,1.41,0.35,2.07c-3.53,18.69-7.1,37.37-10.68,56.05
		C877.5,361.11,877.22,361.97,876.99,362.79z"/>
	<path class="st0" d="M442.5,365.83c-3.36-1.52-4.81,0.11-6.25,2.07c-4.92,6.68-8.85,13.78-9.85,22.19
		c-1.04,8.79,2.29,15.81,9.27,20.88c15.09,10.95,31.1,12.32,47.82,3.77c0.57-0.29,1.13-0.58,1.7-0.87c0.08-0.04,0.18-0.02,0.5-0.06
		c-0.06,0.34-0.02,0.68-0.16,0.9c-3.3,4.76-4.42,10.17-4.41,15.81c0.04,20.52,6.91,38.12,22.52,51.9c0.2,0.18,0.42,0.36,0.58,0.58
		c0.1,0.13,0.12,0.32,0.26,0.78c-32.28,3.4-64.18,8.68-95.99,17.1c-6.04-25.17-8.01-50.44-6.54-75.99
		c2.28-39.57,12.96-76.76,32.35-111.48C438.45,330.49,440.15,347.87,442.5,365.83z"/>
	<path class="st0" d="M896.29,310.13c33.08,59.94,41.75,123.4,27.46,190.27c-16.34-3.4-32.19-7.09-48.18-9.91
		c-15.91-2.81-31.97-4.75-48.23-7.11c1.19-1.09,2.28-2.01,3.29-3.02c14.99-15.05,21.44-33.24,19.8-54.33
		c-0.17-2.15-0.76-4.32-1.49-6.36c-0.7-1.95-1.83-3.75-3.1-6.27c1.47,0.77,2.44,1.28,3.41,1.79c15.28,8.11,34.48,6.21,47.77-4.74
		c7.98-6.58,10.67-15.68,7.33-26.11c-2.32-7.25-5.82-13.9-11.42-19.28c-0.47-0.45-0.59-1.46-0.56-2.19
		c0.68-15.29,1.37-30.58,2.14-45.86c0.12-2.3,0.58-4.59,0.89-6.88C895.69,310.11,895.99,310.12,896.29,310.13z M910.49,461.64
		c0.31-11.78-10.02-21.14-20.99-21.03c-12.25,0.12-21.19,9.76-20.95,22.2c0.21,11.06,10.1,20.31,21.41,20.05
		C901.44,482.59,910.7,473.02,910.49,461.64z"/>
	<path class="st0" d="M708.93,149.17c-27.84-5.22-55.72-5.96-84.04-0.73c7.96-5.9,34.19-11.63,55.64-8.72
		c10,1.36,19.79,3.37,28.74,8.13C709.15,148.28,709.04,148.72,708.93,149.17z"/>
	<path class="st0" d="M716.18,193.95c-1.44,0.42-2.28,0.98-2.91,0.8c-2-0.56-3.93-1.39-5.88-2.13c-3.75-1.44-7.2-1.3-10.46,1.41
		c-0.8,0.66-2.89,1.06-3.34,0.59c-1.24-1.31-0.96-2.81,0.61-4.17c4.8-4.15,14.33-4.58,19-0.57
		C714.23,190.76,714.86,192.11,716.18,193.95z"/>
	<path class="st0" d="M619.13,195.27c-0.61-2.73,0.32-4.28,1.87-5.55c4.75-3.87,14.65-3.33,19.09,0.92
		c1.44,1.37,1.39,2.81,0.38,4.12c-1.21,1.57-2.3,0.14-3.18-0.62c-3.36-2.9-7.01-3.06-10.97-1.46
		C624.04,193.6,621.68,194.36,619.13,195.27z"/>
	<path d="M706.36,597.8c0-28.31,0-56.51,0-85c1.01-0.05,1.97-0.13,2.93-0.13c11.03-0.01,22.05-0.02,33.08,0
		c19.1,0.03,36.53,13.72,40.95,32.16c4.73,19.69-4.06,39.3-21.55,48.28c-6.12,3.14-12.57,4.77-19.44,4.79
		c-11.21,0.02-22.42,0.02-33.63,0.01C707.99,597.91,707.27,597.84,706.36,597.8z M730.3,555.59
		C730.31,555.59,730.31,555.59,730.3,555.59c0.01,5.19,0.02,10.37,0,15.56c-0.01,1.22,0.12,2.1,1.69,2.17
		c4.84,0.2,9.61,0.17,14.26-1.56c10.84-4.02,14.59-18.32,7.03-27.1c-5.41-6.29-12.62-7.32-20.35-7.05
		c-1.99,0.07-2.72,0.66-2.67,2.69C730.38,545.4,730.3,550.49,730.3,555.59z"/>
	<path d="M697.42,611.34c-17.64-16.45-34.82-32.49-52.01-48.52c-0.21,0.11-0.43,0.22-0.64,0.33c0,9.59,0,19.18,0,28.42
		c-8.17,1.03-15.97,2-23.9,3c0-30.13,0-60.58,0-91.71c17.52,16.22,34.62,32.05,51.73,47.89c0.25-0.09,0.5-0.19,0.76-0.28
		c0-12.49,0-24.98,0-37.64c8.28,0,16.07,0,24.07,0C697.42,545.5,697.42,578.06,697.42,611.34z"/>
	<path d="M485.06,597.75c-8.12,0-15.91,0-24.07,0c0-1.09,0-2.05,0-3.02c0-26.33,0.03-52.67-0.05-79c-0.01-2.34,0.51-3.16,3-3.13
		c9.93,0.13,19.86-0.03,29.79,0.06c15.88,0.15,30.71,11.79,34.55,26.98c4.16,16.43-2.57,32.51-17.16,40.56
		c-6.88,3.8-14.48,4.69-22.2,4.86c-3.86,0.08-3.86,0.08-3.86,3.87C485.06,591.75,485.06,594.57,485.06,597.75z M485.07,548.72
		c0,3.45-0.08,6.91,0.07,10.35c0.03,0.66,0.98,1.78,1.55,1.81c2.8,0.15,5.65,0.23,8.44-0.08c5.04-0.54,9.52-5.1,10.17-9.97
		c0.75-5.7-1.79-11.21-6.94-12.83c-3.78-1.18-7.99-1.01-12.02-1.26c-0.38-0.02-1.19,1.21-1.21,1.89
		C485,541.99,485.07,545.35,485.07,548.72z"/>
	<path d="M870.83,597.9c-8.7,0-16.8,0.04-24.91-0.07c-0.71-0.01-1.69-0.92-2.06-1.65c-1.63-3.25-2.98-6.65-4.67-9.87
		c-0.42-0.81-1.7-1.65-2.59-1.66c-7.84-0.13-15.67-0.03-23.51-0.1c-1.56-0.02-2.23,0.62-2.81,1.95c-1.42,3.25-2.93,6.47-4.55,9.62
		c-0.38,0.75-1.33,1.7-2.03,1.71c-8.09,0.12-16.18,0.08-24.89,0.08c15.08-30.5,29.96-60.56,45.04-91.06
		C839.55,537.29,855.06,567.34,870.83,597.9z M828.67,561.48c-1.59-3.76-3.07-7.26-4.8-11.35c-1.79,4.09-3.31,7.56-4.96,11.35
		C822.34,561.48,825.22,561.48,828.67,561.48z"/>
	<path d="M565.09,506.84c15.72,30.46,31.25,60.56,46.99,91.07c-8.75,0-17.01,0.04-25.26-0.08c-0.6-0.01-1.4-0.98-1.75-1.68
		c-1.57-3.18-2.89-6.49-4.55-9.62c-0.47-0.89-1.78-1.85-2.73-1.87c-7.74-0.15-15.48-0.07-23.22-0.12c-1.56-0.01-2.44,0.46-3.07,1.99
		c-1.36,3.27-2.89,6.49-4.53,9.63c-0.41,0.78-1.54,1.66-2.35,1.67c-7.65,0.13-15.3,0.08-22.95,0.07c-0.33,0-0.67-0.13-1.46-0.3
		C535.17,567.34,550.03,537.3,565.09,506.84z M569.94,561.39c-1.69-3.91-3.16-7.3-4.87-11.25c-1.73,4.03-3.22,7.52-4.82,11.25
		C563.64,561.39,566.56,561.39,569.94,561.39z"/>
	<path class="st1" d="M673.87,597.15c-2.81,3.18-5.24,5.94-7.41,8.38c-2.93-1.93-5.5-3.96-8.36-5.4c-3.42-1.72-5.24-1.41-7.32,1.77
		c-3.47,5.3-6.47,10.92-9.54,16.48c-0.62,1.13-0.65,2.59-0.95,3.89c1.28-0.43,2.56-0.84,3.83-1.29c0.34-0.12,0.66-0.44,0.99-0.44
		c1.37-0.02,2.77-0.07,4.11,0.18c0.34,0.06,0.82,1.63,0.64,1.77c-1.07,0.85-2.22,1.85-3.5,2.14c-3.54,0.8-3.75,0.95-3.46,5.21
		c0.1,1.42,0.85,3.39,0.19,4.15c-1.46,1.7-3.62,2.79-5.5,4.13c-0.32-0.13-0.64-0.26-0.95-0.39c0.95-4.29,1.9-8.58,2.84-12.88
		c-0.18-0.11-0.36-0.22-0.53-0.32c-0.59,0.76-1.31,1.45-1.74,2.29c-4.97,9.7-9.66,19.55-14.9,29.1c-3.38,6.16-7.76,11.72-14.3,14.99
		c-1.64,0.82-3.48,1.24-5.57,1.96c-0.22-2.56,0.05-4.7-0.65-6.45c-1.12-2.8-2.63-5.54-4.45-7.93c-1.69-2.22-3.03-4.39-3.49-7.5
		c1.32,0.23,2.27,0.38,3.22,0.56c5.8,1.08,10.77-0.54,15.1-4.49c6.38-5.81,11.39-12.73,16.12-19.88c0.13-0.2,0.13-0.5,0.28-1.17
		c-1.46,0.61-2.67,1.1-3.87,1.6c-0.87-1.84-1.74-3.68-2.71-5.73c2.72-1.64,5.8-1.36,8.86-1.49c1.08-0.05,2.49-0.58,3.13-1.38
		c5.05-6.32,9.95-12.76,14.88-19.17c0.26-0.34,0.38-0.78,0.76-1.56c-8.34-1.04-16.01-0.65-22.67,4.81
		c-4.89,4.01-7.58,9.26-8.54,15.39c-0.34,2.18-1.07,3.38-3.4,3.81c-5.28,0.97-9.68,3.26-11.07,9.26c-0.32,0.01-0.65,0.02-0.97,0.03
		c-0.83-1.65-2.03-3.22-2.41-4.97c-1.49-6.9,0.72-12.96,4.99-18.29c6.32-7.89,15.21-10.85,24.73-12.55
		c10.94-1.95,21.78-0.48,32.64,0.71C666.41,596.86,669.95,596.92,673.87,597.15z"/>
	<path class="st2" d="M714.7,625.85c0.5,0.46,0.99,0.92,1.78,1.65c1.92-3.8,3.82-7.3,5.49-10.9c1.63-3.53,3.03-7.16,4.66-11.05
		c3.6,1.96,7.32,0.69,11.56-0.9c-8.85,10.81-15.46,22.17-20.59,34.38c-0.52,1.24-0.92,2.62-0.94,3.94
		c-0.02,0.94,0.45,2.35,1.15,2.72c0.68,0.36,2.25-0.01,2.85-0.63c2.28-2.33,4.34-4.86,6.44-7.37c0.81-0.97,1.47-2.05,2.71-2.79
		c-1.46,2.37-2.77,4.85-4.41,7.08c-2.26,3.06-4.53,6.18-7.24,8.82c-3.91,3.82-7.04,2.92-8.96-2.17c-0.09-0.24-0.29-0.43-0.64-0.92
		c-3.08,2.47-5.53,6.71-10.3,5.06c-4.73-1.63-4.29-6.22-4.81-9.63c-2.57,0.69-5.07,1.28-7.51,2.06c-0.6,0.19-1,1.01-1.48,1.55
		c-1.09,1.22-2.13,2.49-3.25,3.67c-2.02,2.13-4.49,3.25-7.39,2.31c-3-0.97-3.9-3.61-4.36-6.41c-0.19-1.15-0.2-2.34-0.32-3.91
		c-0.8,0.45-1.37,0.77-1.93,1.1c-0.85,0.51-1.75,1.55-2.52,1.45c-3.35-0.41-4.7,2.03-6.46,4c-0.78,0.88-1.63,1.73-2.54,2.48
		c-3.81,3.12-8.76,1.53-10.06-3.18c-2.32-8.41,2.55-20.18,10.22-24.29c1.54-0.82,3.41-1.26,5.16-1.41c3.51-0.29,5.98,1.71,5.85,5.23
		c-0.14,3.59-1.16,7.13-1.7,10.71c-0.2,1.33-0.15,2.71-0.21,4.06c1.31-0.78,2.85-1.34,3.88-2.39c0.88-0.91,1.27-2.36,1.73-3.62
		c2.01-5.54,4.87-10.39,10.41-13.08c2.65-1.29,5.58-1.82,8.07-0.03c2.56,1.85,2.65,4.84,2.07,7.72c-0.59,2.93-1.38,5.83-2.03,8.75
		c-0.19,0.84-0.23,1.71-0.34,2.61c3.04-0.06,4.56-1.89,6.08-5.17c1.74-3.74,3.81-7.42,6.3-10.69c2.29-3.01,5.82-4.33,9.7-4.07
		c2.05,0.13,3.72,0.93,3.94,3.32c-2.28-2.36-4.11-2.6-6.53-0.39c-1.58,1.44-3.02,3.15-4.12,4.99c-2.16,3.62-3.72,7.5-2.99,11.87
		c0.42,2.52,2.19,4.08,4.29,3.39c1.35-0.44,2.85-1.52,3.53-2.74C711.96,637.71,715.25,632.4,714.7,625.85z M666.07,629.03
		c-0.59-4.25-2.41-5.31-5.76-3.4c-4.35,2.47-8.69,11.24-7.98,16.17c0.09,0.62,0.27,1.25,0.54,1.81c1.2,2.49,4.28,3.05,6,0.88
		c0.87-1.1,1.28-2.74,1.43-4.18c0.27-2.72,1.01-5.06,2.99-7.08C664.44,632.06,665.16,630.45,666.07,629.03z M690.25,629.24
		c-0.53-4.15-2-5.32-5.08-3.96c-4.61,2.05-9.57,12-8.45,16.97c0.43,1.9,1.24,3.49,3.48,3.55c2.32,0.06,3.71-1.35,4.47-3.34
		c0.31-0.81,0.15-1.8,0.18-2.7c0.08-2.55,0.89-4.72,2.76-6.59C688.7,632.07,689.38,630.56,690.25,629.24z"/>
	<path d="M665.89,230.87c0.98,2.08,1.65,3.76,2.52,5.33c4.41,7.97,12.19,10.51,20.51,6.73c4.44-2.02,7.89-5.19,10.39-9.34
		c0.39-0.64,0.15-2.02-0.31-2.72c-0.81-1.26-2.02-2.27-3.19-3.53c6.38-0.08,9.77,3.47,9.19,9.59c-0.93-0.7-1.77-1.32-2.6-1.94
		c-22.7,34.85-56.53,27.41-72.71-0.22c-1.27,1.16-2.51,2.29-3.82,3.49c-0.17-4.69,3.3-9.9,7.93-11.81c-0.27,1.08-0.3,2.14-0.77,2.93
		c-1.54,2.62-0.48,4.58,1.58,6.08c4.18,3.05,8.34,6.2,12.8,8.79c4.16,2.42,8.63,1.36,11.88-2.24c1.39-1.54,2.6-3.28,3.67-5.07
		C664.01,235.16,664.78,233.2,665.89,230.87z"/>
	<path d="M664.13,223.15c-5.73,0-10.69-2-14.78-5.96c-2.27-2.2-2.05-4.23,0.35-5.89c7.04-4.87,24.32-5.14,31.52-0.49
		c2.84,1.83,2.97,2.79,0.7,5.28C678.11,220.26,670.8,223.15,664.13,223.15z"/>
	<path d="M677.96,263.11c-4.06,8.96-13.24,9.37-21.83,1.23C663.62,266.68,670.72,268.29,677.96,263.11z"/>
	<path class="st3" d="M910.49,461.64c0.21,11.39-9.05,20.96-20.53,21.22c-11.32,0.26-21.2-9-21.41-20.05
		c-0.24-12.44,8.7-22.07,20.95-22.2C900.47,440.5,910.8,449.86,910.49,461.64z M894.4,461.83c-0.03,0-0.07,0-0.1,0
		c0-4.09,0.08-8.17-0.03-12.26c-0.08-3.06-1.17-3.79-4.99-3.75c-3.54,0.04-4.62,0.86-4.64,3.85c-0.05,7.99-0.04,15.99,0,23.98
		c0.02,2.99,1.26,4.03,4.52,4.02c4.11-0.01,5.16-0.79,5.22-4.13C894.45,469.64,894.4,465.73,894.4,461.83z"/>
	<path class="st0" d="M730.3,555.59c0-5.1,0.08-10.19-0.04-15.29c-0.05-2.04,0.68-2.62,2.67-2.69c7.72-0.28,14.94,0.76,20.35,7.05
		c7.56,8.78,3.81,23.08-7.03,27.1c-4.65,1.72-9.42,1.75-14.26,1.56c-1.56-0.06-1.69-0.95-1.69-2.17
		C730.33,565.96,730.31,560.78,730.3,555.59C730.31,555.59,730.31,555.59,730.3,555.59z"/>
	<path class="st0" d="M485.07,548.72c0-3.36-0.07-6.73,0.06-10.08c0.03-0.67,0.83-1.91,1.21-1.89c4.03,0.25,8.24,0.08,12.02,1.26
		c5.15,1.61,7.69,7.13,6.94,12.83c-0.64,4.88-5.13,9.43-10.17,9.97c-2.79,0.3-5.63,0.23-8.44,0.08c-0.57-0.03-1.52-1.16-1.55-1.81
		C484.99,555.62,485.07,552.17,485.07,548.72z"/>
	<path class="st0" d="M828.67,561.48c-3.45,0-6.33,0-9.77,0c1.66-3.79,3.18-7.27,4.96-11.35
		C825.6,554.22,827.08,557.72,828.67,561.48z"/>
	<path class="st0" d="M569.94,561.39c-3.38,0-6.3,0-9.7,0c1.6-3.73,3.1-7.23,4.82-11.25C566.78,554.09,568.25,557.48,569.94,561.39z
		"/>
	<path class="st0" d="M714.7,625.85c0.54,6.55-2.75,11.86-5.74,17.2c-0.68,1.21-2.18,2.3-3.53,2.74c-2.1,0.68-3.87-0.87-4.29-3.39
		c-0.73-4.37,0.83-8.25,2.99-11.87c1.1-1.83,2.54-3.54,4.12-4.99c2.41-2.2,4.24-1.97,6.53,0.39
		C714.78,625.94,714.7,625.85,714.7,625.85z"/>
	<path class="st0" d="M666.07,629.03c-0.92,1.41-1.63,3.02-2.79,4.2c-1.99,2.02-2.72,4.36-2.99,7.08c-0.14,1.44-0.56,3.08-1.43,4.18
		c-1.72,2.18-4.8,1.62-6-0.88c-0.27-0.56-0.45-1.19-0.54-1.81c-0.71-4.94,3.64-13.7,7.98-16.17
		C663.66,623.72,665.49,624.79,666.07,629.03z"/>
	<path class="st0" d="M690.25,629.24c-0.87,1.33-1.55,2.84-2.64,3.94c-1.87,1.87-2.69,4.04-2.76,6.59c-0.03,0.91,0.13,1.9-0.18,2.7
		c-0.76,1.99-2.15,3.41-4.47,3.34c-2.24-0.06-3.06-1.66-3.48-3.55c-1.12-4.97,3.84-14.93,8.45-16.97
		C688.25,623.91,689.72,625.08,690.25,629.24z"/>
	<path class="st0" d="M894.4,461.83c0,3.91,0.05,7.81-0.02,11.72c-0.06,3.34-1.11,4.12-5.22,4.13c-3.26,0.01-4.5-1.03-4.52-4.02
		c-0.05-7.99-0.05-15.99,0-23.98c0.02-2.99,1.1-3.82,4.64-3.85c3.82-0.04,4.91,0.69,4.99,3.75c0.11,4.08,0.03,8.17,0.03,12.26
		C894.34,461.83,894.37,461.83,894.4,461.83z M890.97,474.24c0-8.46,0-16.62,0-24.82c-1.09,0-2.01,0-2.88,0c0,8.4,0,16.55,0,24.82
		C889.11,474.24,889.9,474.24,890.97,474.24z"/>
	<path d="M890.97,474.24c-1.07,0-1.86,0-2.88,0c0-8.26,0-16.42,0-24.82c0.87,0,1.79,0,2.88,0
		C890.97,457.62,890.97,465.78,890.97,474.24z"/>
	<path class="st4" d="M803,37"/>
	<path class="st5" d="M592.5,172.5"/>
</g>
<g id="Capa_3">
</g>
</svg>
